<?xml version="1.0" encoding="UTF-8" standalone="no"?>
<!-- Created with Inkscape (http://www.inkscape.org/) -->

<svg
   version="1.1"
   id="svg2"
   width="2480"
   height="2480"
   viewBox="0 0 2480 2480"
   xmlns="http://www.w3.org/2000/svg"
   xmlns:svg="http://www.w3.org/2000/svg">
  <defs
     id="defs6" />
  <g
     id="g8">
    <g
       id="g293"
       transform="translate(3198.5103,63.057508)">
      <path
         style="fill:#fbe3cd"
         d="m -2421.5593,2213.9492 v -41 h 20 20 v -20.5 -20.5 h 20.5 20.5 v -20 -20 h 20.5 20.5 v -20.5 -20.5 h 20 20 v -101 -101 h -40.5 -40.5 v -20.5 -20.5 h -20.5 -20.5 v -40.5 -40.5 h -20 -20 v -244.5 -244.5 h 20 20 v -41 -41 h 20.5 20.5 v -20 -20 h 20.5 20.5 v -20.5 -20.5 h 20 20 v -121.50005 -121.5 h -20 -20 v -20.5 -20.5 h -20.5 -20.5 v -61.5 -61.5 h 20.5 20.5 v -20 -20 h 20 20 v -60.5 -60.5 h -20 -20 v -61 -61 h -20.5 -20.5 v -21 -21 h 20.5 20.5 v -20.5 -20.5 h 20 20 v -40.5 -40.5 h 20.5 20.5 v -40.5 -40.5 h 20.5 20.5 v -20.5 -20.499996 h 61.5 61.5 v 20.499996 20.5 h 20 20 v 20.5 20.5 h -20 -20 v 20 20 h 101.5 101.5 v 20.5 20.5 h 61 61 v 19.97929 19.9793 l 20.25,0.2707 20.25,0.27071 0.2707,20.25 0.2707,20.25 h 19.9793 19.9793 v 20.5 20.5 h 20.5 20.5 v 19.97929 19.9793 l 20.25,0.2707 20.25,0.27071 v 41 41 l -20.25,0.27071 -20.25,0.2707 v 60.4793 60.47929 h 20.5 20.5 v 20 20 h 20 20 v 61.5 61.5 h -20 -20 v 20.5 20.5 h -20.5 -20.5 v 121.5 121.50005 h 20.5 20.5 v 20.5 20.5 h 20 20 v 20 20 h 20.5 20.5 v 41 41 h 20.502 20.502 l -0.252,244.25 -0.252,244.25 -20.25,0.2707 -20.25,0.2707 v 40.4793 40.4793 h -20.5 -20.5 v 20.5 20.5 h -40.5 -40.5 v 101 101 h 20.5 20.5 v 20.5 20.5 h 20 20 v 20 20 h 20.5 20.5 v 20.5 20.5 h 20.5 20.5 v 41 41 h -488.5 -488.5 z"
         id="path307" />
      <path
         style="fill:#f5c8a7"
         d="m -2421.5593,2213.9502 v -41.001 h 20 20 l 0.125,-19 c 0.069,-10.45 0.1813,-19.5625 0.25,-20.25 0.094,-0.9449 5.0683,-1.3161 20.375,-1.5207 l 20.25,-0.2707 v -19.9793 -19.9793 h 20.5 20.5 v -20.5 -20.5 h 20 20 l 0.014,-19.75 c 0.093,-126.6109 0.01,-181.5599 -0.2785,-181.8473 -0.1899,-0.1899 -18.3207,-0.4708 -40.2907,-0.624 l -39.9453,-0.2787 -0.2706,-20.2294 -0.2707,-20.2293 -20.2293,-0.2707 -20.2294,-0.2706 v -40.2499 -40.25 l -18.5,-0.1154 c -10.175,-0.063 -19.175,-0.176 -20,-0.25 -1.3281,-0.1193 -1.5289,-28.1222 -1.752,-244.3847 l -0.252,-244.25 20.252,2e-4 20.252,2e-4 -0.2198,-39.4971 c -0.1209,-21.7234 0.043,-40.1815 0.3638,-41.0179 0.321,-0.8365 1.0949,-1.4595 1.7198,-1.3846 0.6249,0.075 9.5737,0.083 19.8862,0.018 l 18.75,-0.1188 v -20 -20 h 20.5 20.5 v -20.4793 -20.4793 l 20.0197,-0.2707 20.0198,-0.2707 0.2302,-121.25005 0.2303,-121.24999 -20.25,-10e-6 h -20.25 v -20.5 -20.5 h -20.5077 -20.5077 l 0.2577,-61.25 c 0.2024,-48.11512 0.5258,-61.27681 1.5077,-61.375 0.6875,-0.0688 9.8,-0.18125 20.25,-0.25 l 19,-0.125 v -19.97929 -19.9793 l 20.0892,-0.2707 20.0893,-0.27071 -0.073,-18.5 c -0.04,-10.175 -0.08,-37.2875 -0.089,-60.25 l -0.017,-41.75 h -20 -20 v -61 -61 h -20.5 -20.5 v -21 -21 h 20.5 20.5 v -20.3692 -20.36919 l 19.7229,-0.18704 c 10.8476,-0.10287 19.8467,-0.31085 19.998,-0.46218 0.1514,-0.15133 0.3886,-18.23852 0.5271,-40.19377 l 0.252,-39.91862 20.25,-0.27071 20.25,-0.2707 v -40.4793 -40.47929 h 20.5 20.5 V 119.44146 98.933784 l 61.25,0.25768 61.25,0.25769 0.2707,20.249996 0.2707,20.25 h 19.9793 19.9793 v 20.5 20.5 l -20.25,-0.001 -20.25,-0.001 0.2902,20.00103 0.2901,20.00103 h 101.4599 101.4598 v 20.5 20.5 h 61 61 v 19.97929 19.9793 l 20.25,0.2707 20.25,0.27071 0.2162,20 0.2162,20 20.0338,0.27071 20.0338,0.2707 v 20.4793 20.47929 h 20.5 20.5 v 20 20 h 18.9182 c 10.405,0 19.6229,0.27041 20.4842,0.60091 1.3853,0.53159 1.5625,5.1496 1.5366,40.03575 -0.016,21.68917 -0.2821,40.09376 -0.5911,40.8991 -0.4673,1.21775 -3.9106,1.46424 -20.4549,1.46424 h -19.893 v 60.47929 60.4793 l 20.25,0.2707 20.25,0.27071 v 19.75092 19.75091 l 16.5,0.10623 c 14.4855,0.0933 20.5382,0.2916 23.25,0.76188 0.4125,0.0715 0.75,27.58006 0.75,61.13006 v 61 h -20 -20 l -0.1184,17.75 c -0.065,9.7625 -0.05,18.1341 0.034,18.60356 0.084,0.46946 -0.1179,1.70696 -0.449,2.75 -0.5644,1.77836 -1.843,1.89644 -20.5345,1.89644 h -19.9326 v 121.4793 121.47929 l 20.25,0.2707 20.25,0.2707 0.2195,19 c 0.1207,10.45 0.2332,19.5625 0.25,20.25 0.023,0.9573 4.7134,1.25 20.0305,1.25 h 20 l -5e-4,20.25 -6e-4,20.25 h 20.2506 20.2505 l 0.2612,40.7293 0.2612,40.7294 20.2388,0.2706 20.2388,0.2707 0.2732,242 c 0.1502,133.1 0.029,243.0125 -0.2691,244.25 -0.5398,2.2402 -0.6295,2.25 -20.5232,2.25 h -19.9809 v 40.5 40.5 h -20.5 -20.5 v 20.4795 20.4795 l -40.5,-0.2295 -40.5001,-0.2295 10e-5,101.2293 v 101.2293 l 20.25,0.2707 c 20.211,0.2702 20.2502,0.275 20.375,2.5207 0.069,1.2375 0.1813,10.35 0.25,20.25 l 0.125,18 h 20 20 v 20 20 h 20.5 20.5 v 20.4793 20.4793 l 20.25,0.2707 20.25,0.2707 v 40.5 40.5 l -488.25,0.251 -488.25,0.251 v -41.001 z m 447,-264.001 v -101 h -121.5 -121.5 v 101 101 h 121.5 121.5 z m 326,0 v -101 h -142 -142 v 101 101 h 142 142 z m -610,-264.5 v -121.5 h -61 -61 v 60.5 60.5 h 20.5 20.5 v 40.5 40.5 h 20.5 20.5 v 20.5 20.5 h 20 20 z m 691,101 v -20.5 h 20.5 20.5 v -40.5 -40.5 h 20 20 v -60.5 -60.5 h -60.5 -60.5 v 121.5 121.5 h 20 20 z m -447,-548.5 v -41 h 20 20 v -40 -40 h -101 -101 v 20 20 h 20 20 v 20 20 h 20.5 20.5 v 20.5 20.5 h 20.5 20.5 v 20.5 20.5 h 20 20 z m 244,20.5 v -20.5 h 20 20 v -20.5 -20.5 h 20.5 20.5 v -20 -20 h 20.5 20.5 v -20 -20 h -122 -122 v 40 40 h 20.5 20.5 v 20.5 20.5 h 20.5 20.5 v 20.5 20.5 h 20 20 z"
         id="path305" />
      <path
         style="fill:#daab91"
         d="m -2421.5593,2213.9492 v -41 h 20.5 20.5 v -20.5 -20.5 h 20 20 v -20 -20 h 20.5 20.5 v -20.5 -20.5 h 20.5065 20.5064 l -0.2564,-101.25 -0.2565,-101.25 -39,-0.2275 c -21.45,-0.1251 -39.7875,-0.2376 -40.75,-0.25 -1.6075,-0.021 -1.75,-1.6491 -1.75,-20.0018 v -19.9793 l -20.0529,-0.2707 -20.0528,-0.2707 -0.1972,-40.5 -0.1971,-40.5 -20.25,-0.2707 -20.25,-0.2707 v -243.9793 -243.9793 h 20.5575 20.5575 l -0.1197,-21.25 c -0.066,-11.6875 -0.092,-30.025 -0.059,-40.75 l 0.061,-19.5 20.001,0.2902 20.0011,0.2901 v -20.5401 -20.5402 h 20.5 20.5 v -20.4793 -20.4793 l 20.25,-0.2707 20.25,-0.2707 0.2499,-121.25005 0.25,-121.25 h -20.5 -20.4999 v -20.5 -20.5 h -20.5 -20.5 v -61 -61 l 19.75,-0.11842 c 10.8625,-0.0651 20.0875,-0.0651 20.5,0 0.4125,0.0651 0.75,-9.10658 0.75,-20.38158 v -20.5 h 20.5077 20.5078 l -0.2578,-60.75 -0.2577,-60.75 -19,-0.19129 c -10.45,-0.10521 -19.5625,-0.21771 -20.25,-0.25 -0.9856,-0.0463 -1.25,-12.85255 -1.25,-60.538 v -60.4793 l -20.25,-0.2707 -20.25,-0.27071 v -20.5 -20.5 l 20.25,-0.27071 20.25,-0.2707 v -19.95859 -19.95859 l 20.25,-0.2707 20.25,-0.27071 0.2344,-40.5 0.2344,-40.5 20.0156,-0.27071 20.0156,-0.2707 v -40.4793 -40.47929 h 20.5 20.5 V 119.44146 98.933784 l 61.0797,0.25768 61.0797,0.25769 -0.1166,20.249996 -0.1166,20.25 h 20.5369 20.5369 v 20.5 20.5 h -20.5211 -20.5212 l 0.2712,19.75 0.2711,19.75 101.5,0.5 101.5,0.5 0.2707,20.25 0.2707,20.25 h 60.9793 60.9793 v 20.54015 20.54015 l 20.001,-0.29015 20.0011,-0.29015 v 20.25 l -10e-4,20.25 h 20.5 20.5 v 20.5 20.5 h 20.5 20.5 v 20.53756 20.53756 l 19.75,-0.11899 19.75,-0.11899 0.2612,40.56025 0.2612,40.56026 -19.7612,0.27117 -19.7612,0.27118 -0.2577,60.72927 -0.2578,60.72927 20.1462,0.27073 20.1462,0.27073 -0.198,19.62018 c -0.1801,17.85957 -0.041,19.68035 1.5494,20.29069 0.9611,0.36878 8.9753,0.63227 17.8095,0.58553 8.8342,-0.0467 17.2997,-0.0651 18.8122,-0.0407 l 2.7489,0.0443 v 61 61 h -20.5 -20.5 v 20.5 20.5 h -20 -20 v 121.4793 121.47935 l 20.0803,0.2707 20.0802,0.2707 -0.1171,20.25 -0.1172,20.25 h 20.5369 20.5369 v 20.5617 20.5616 l 18.75,-0.1291 c 10.3125,-0.071 19.5375,-0.099 20.5,-0.062 1.6367,0.063 1.75,2.6875 1.75,40.5468 v 40.4793 l 20.0166,0.2707 20.0166,0.2707 -0.014,242 c -0.01,133.1 -0.015,242.7875 -0.017,243.75 0,1.6082 -1.6214,1.75 -19.9909,1.75 h -19.9888 l -0.2612,40.75 -0.2612,40.75 -20.25,0.2707 -20.25,0.2707 v 19.9793 19.9793 l -19.75,0.037 c -10.8625,0.02 -29.0875,0 -40.5,-0.036 l -20.75,-0.073 v 101.5356 101.5356 h 20 c 18.3658,0 20.0033,0.143 20.0399,1.75 0.022,0.9625 0,10.1875 -0.038,20.5 l -0.078,18.75 h 20.5382 20.5383 v 19.9793 19.9793 l 20.25,0.2707 20.25,0.2707 0.2707,20.25 0.2707,20.25 h 19.9565 19.9565 l 0.2728,38.75 c 0.15,21.3125 0.129,39.7625 -0.047,41 l -0.3195,2.25 h -487.9305 -487.9304 v -41 z m 447,-20 v -20 h -203 -203 v 20 20 h 203 203 z m 488,0 v -20 h -223 -223 v 20 20 h 223 223 z m -488,-244 v -101 h -121.5 -121.5 v 101 101 h 121.5 121.5 z m 326,0 v -101 h -142 -142 v 101 101 h 142 142 z m -610,-264.5 v -121.5 h -61 -61 v 60.5 60.5 h 20.5 20.5 v 40.7696 40.7695 l 20.25,-0.019 20.25,-0.02 0.2707,20.25 0.2707,20.25 h 19.9793 19.9793 v -121.5 z m 691,101.6113 v -19.8887 l 3.25,-0.5773 c 1.7875,-0.3176 10.9,-0.4802 20.25,-0.3613 l 17,0.216 0.2612,-40.75 0.2612,-40.75 h 19.9888 19.9888 v -60.5 -60.5 h -60.5 -60.5 v 121.5 121.5 h 20 20 z m -447,-549.1113 v -41 h 20 20 v -40 -40 h -101 -101 v 20 20 h 20 20 v 20 20 h 20.5 20.5 v 20.5 20.5 h 20.5 20.5 v 20.5 20.5 h 20 20 z m 244,20.5 v -20.5 h 20 20 v -20.5 -20.5 h 20.5 20.5 v -20 -20 h 20.5 20.5 v -20 -20 h -122 -122 v 40 40 h 20.5 20.5 v 20.5 20.5 h 20.5 20.5 v 20.5 20.5 h 20 20 z m 122,-325.50946 V 790.94915 h 40.5 40.5 v -61 -61 h -40.5 -40.5 v 41 41 h -20.5 -20.5 v -20.5 -20.5 h -20.5 -20.5 v -61 -61 h -60.5 -60.5 v 20.5 20.5 h -41 -41 v 60.5 60.5 h -19.9923 -19.9922 l -0.2656,-60.75 c -0.1784,-40.78854 -0.3452,-27.34713 -0.5078,40.9071 l -0.2421,101.6571 -19.9994,-0.1571 -19.9993,-0.1571 -7e-4,20.25 -6e-4,20.25 h 20 20 l 0.2385,40.75 0.2384,40.75 0.2728,-40.75 0.2727,-40.75 h 19.9888 19.9888 v 40.5 40.5 h 40.5 40.5 v -20 -20 h 20.5 20.5 v -20.5 -20.5 h 20.5 20.5 v 20.5 20.5 h -20 -20 v 20.5 20.5 h -20.5 -20.5 v 20.5 20.5 h -41 -41 v 39.98895 39.9889 l 41.25,0.2611 c 22.6875,0.1436 86.8125,0.1444 142.5,0 l 101.25,-0.2594 V 932.93804 Z m -203.3333,-182.65726 c -0.3667,-0.36666 -0.6667,-18.81666 -0.6667,-41 v -40.33333 h 41 41 v 41 41 h -40.3333 c -22.1834,0 -40.6334,-0.3 -41,-0.66667 z m -243.917,202.91667 c -0.15,-22.4125 -0.2728,-4.075 -0.2728,40.75 0,44.82505 0.1228,63.16255 0.2728,40.75005 0.15,-22.4125 0.15,-59.08755 0,-81.50005 z m 121.9991,61.50005 c -0.1609,-11.1375 -0.2926,-2.025 -0.2926,20.25 0,22.275 0.1317,31.3875 0.2926,20.25 0.1609,-11.1375 0.1609,-29.3625 0,-40.5 z m -122.0657,-144.93755 c -0.3192,-0.79773 -0.5562,-0.56078 -0.6042,0.60417 -0.043,1.05416 0.193,1.64479 0.5253,1.3125 0.3323,-0.33229 0.3678,-1.1948 0.079,-1.91667 z m 0.066,-89.49092 c -0.1542,-16.40187 -0.2805,-3.27158 -0.2807,29.17842 -10e-5,32.45 0.1261,45.86971 0.2805,29.82158 0.1544,-16.04813 0.1545,-42.59813 2e-4,-59 z m 0,-142.12477 c -0.1795,-5.33325 -0.3256,-0.69681 -0.3247,10.30319 9e-4,11 0.1477,15.36356 0.3263,9.69681 0.1785,-5.66676 0.1778,-14.66676 0,-20 z"
         id="path303" />
      <path
         style="fill:#f1a655"
         d="m -2421.5593,2213.9492 v -41 h 20.5 20.5 v -20 -20 h 19.4648 c 18.2208,0 19.531,-0.1236 20.5,-1.9343 0.607,-1.1341 1.0352,-9.6145 1.0352,-20.5 v -18.5657 h 20 20 v -20.5 -20.5 h 20.5 20.5 v -101.4888 -101.4888 l -40.5613,-0.2612 -40.5613,-0.2612 -0.1887,-20 -0.1887,-20 -20.25,-0.2707 -20.25,-0.2707 v -40.4793 -40.4793 h -20.5 -20.5 v -244 -244 h 20.5 20.5 v -40.4793 -40.4793 l 20.25,-0.2707 20.25,-0.2707 0.2707,-20.25 0.2707,-20.25 h 19.9793 19.9793 v -19.9793 -19.9793 l 20.25,-0.2707 20.25,-0.2707 0.254,-121.75005 0.254,-121.75 h -20.504 -20.504 v -20.5 -20.5 h 41 41 v 142.5 142.50005 h 284.5 284.5 v -142.50005 -142.5 h 40.5 40.5 v -61 -61 h -40.4941 -40.4941 l -0.3282,-80.75 c -0.2763,-67.98913 -0.3167,-64.86805 -0.2559,19.75 l 0.072,100.5 -20,0.53203 -20,0.53203 20.25,0.21797 20.2503,0.21797 v 20 20 h -20.5 -20.5 v -19.97929 -19.9793 l -20.25,-0.2707 -20.25,-0.27071 -0.2577,-60.75 -0.2578,-60.75 h -60.4922 -60.4923 v 19.83616 19.83615 l -60.25,0.6343 c -79.6038,0.83805 -140.0911,0.88348 -142.1152,0.10674 -1.4373,-0.55152 -1.6348,-3.03121 -1.6348,-20.52034 v -19.89301 h -20 -20 l -0.1362,-17.25 c -0.1594,-20.19251 -0.7639,-19.51614 -1.1171,1.25 l -0.2467,14.5 -40,0.51726 -40,0.51725 40.7707,0.23275 40.7707,0.23274 -0.2707,20.25 -0.2707,20.25 -39.9461,0.27942 c -21.9703,0.15367 -40.0679,0.40122 -40.2168,0.55011 -0.1488,0.14888 -0.3195,9.13564 -0.3792,19.97058 l -0.1085,19.69989 h -61.4247 -61.4247 v -20.5 -20.5 h 20.5 20.5 v -61 -61 l 14.75,-0.22026 14.75,-0.22026 -14.2422,-0.30715 -14.2422,-0.30715 -0.2658,-60.22259 -0.2657,-60.22259 -0.2421,60.75 -0.242,60.75 h -20.5 -20.5 v -61 c 0,-33.55 -0.3375,-60.94671 -0.75,-60.88158 -0.4125,0.0651 -9.4125,0.0651 -20,0 l -19.25,-0.11842 v -20 -20 h 20 20 v -20.5 -20.5 h 20.5 20.5 l 0.2271,20.25 0.2271,20.25 0.2952,-19.45477 c 0.2126,-14.00977 0.6388,-19.67306 1.5229,-20.23469 0.8576,-0.54479 0.7001,-0.78453 -0.5223,-0.79523 -1.6376,-0.0143 -1.75,-2.6154 -1.75,-40.4946 v -40.4793 l 20.25,-0.2707 c 17.1413,-0.22915 20.2707,-0.50098 20.3846,-1.77071 0.074,-0.825 0.1866,-19.1625 0.25,-40.75 l 0.1154,-39.25 h 20 20 v -20 -19.999996 h 61 61 v 19.999996 20 h 20.5 20.5 v 20.53861 20.53861 l -20.75,-0.28861 -20.75,-0.28861 0.5,20.5 0.5,20.5 81,0.23446 c 44.55,0.12895 90.1125,0.24145 101.25,0.25 l 20.25,0.0155 0.014,17.75 c 0.01,9.7625 0.2849,18.7625 0.6166,20 l 0.603,2.25 h 60.3833 60.3834 l 0.07,13.25 c 0.039,7.2875 0.1511,16.4 0.25,20.25 l 0.1799,7 20.2294,0.27064 20.2293,0.27064 0.2707,20.22936 0.2706,20.22936 18.5,0.21887 c 10.175,0.12038 19.2875,0.23288 20.25,0.25 1.6073,0.0286 1.75,1.66204 1.75,20.03113 v 20 h 19.9793 19.9793 l 0.2707,20.25 0.2707,20.25 20.25,0.27071 20.25,0.2707 v 40.45859 40.45859 l -20.25,0.2707 -20.25,0.27071 -0.2577,60.75 -0.2578,60.75 h 20.5078 20.5077 v 20.5 20.5 h 20.5 20.5 v 61 61 h -20.5 -20.5 v 20.5 20.5 h -20.4841 -20.4841 l 0.2341,121.75 0.2341,121.75009 20.25,0.2707 20.25,0.2707 v 19.9793 19.9793 h 20.5 20.5 v 20.5 20.5 h 20 20 v 40.5 40.5 h 20.5 20.5 v 243.9793 243.9793 l -20.25,0.2707 -20.25,0.2707 -0.2321,38.5 c -0.1277,21.175 -0.3527,39.3267 -0.5,40.3372 -0.2503,1.7167 -1.5627,1.829 -20.0179,1.7124 l -19.75,-0.1247 v 20.5263 20.5264 l -40.75,0.2612 -40.75,0.2612 -0.2548,101.25 -0.2547,101.25 h 20.5047 20.5048 v 20.5 20.5 h 20.5 20.5 v 20.5 20.5 h 20 20 v 20 20 h 20.5 20.5 v 41 41 h -488 -488 v -41 z m 447.7707,-20.25 -0.2707,-20.25 -162,-0.311 c -89.1,-0.1711 -180.5625,-0.01 -203.25,0.3675 l -41.25,0.6786 v 19.8824 19.8825 h 203.5207 203.5207 z m 487.5246,0.5001 -0.2047,-19.7501 -28.2953,-0.7329 c -15.5624,-0.4031 -116.0453,-0.6281 -223.2953,-0.5 l -195,0.2329 -0.2707,20.25 -0.2707,20.25 223.7707,1e-4 h 223.7707 z m -488.633,-142.9508 c 1.1048,-0.4239 1.3377,-18.1693 1.3377,-101.9063 v -101.393 h -122 -122 v 101.9689 101.9688 l 120.6623,-0.062 c 66.3643,-0.034 121.2643,-0.2935 122,-0.5759 z m 326.0924,-101.5527 0.2548,-101.7534 -142.2548,0.2534 -142.2547,0.2534 -0.2577,100.5 c -0.1418,55.275 -0.047,101.0522 0.2098,101.7272 0.367,0.9631 30.9815,1.1783 142.2578,1 l 141.7901,-0.2272 z m -609.7547,-263.8013 v -121.9453 h -61 -61 v 61.0438 c 0,48.255 0.2619,61.0099 1.25,60.8816 0.6875,-0.089 9.9125,-0.109 20.5,-0.044 l 19.25,0.1186 v 40.5 40.5 h 20 20 v 19.8333 c 0,10.9084 0.2547,20.088 0.5659,20.3993 0.3113,0.3113 9.5363,0.5866 20.5,0.6119 l 19.9341,0.046 z m 691,101.478 v -20.4233 h 20.5 20.5 l -2e-4,-40.75 -2e-4,-40.75 18.2502,0.2514 c 10.0376,0.1383 19.2557,0.019 20.4847,-0.2651 l 2.2345,-0.5166 -7e-4,-60.4849 -8e-4,-60.4848 h -60.9837 -60.9838 v 121.4167 c 0,96.1889 0.2597,121.5248 1.25,121.9374 0.6875,0.2864 9.6875,0.5144 20,0.5066 l 18.75,-0.014 v -20.4233 z m -446.7612,-549.0741 0.2612,-40.6507 20,-0.099 20,-0.099 0.2612,-40.7547 0.2612,-40.7548 -101.7612,0.2548 -101.7612,0.2547 -0.2707,20.25 -0.2707,20.25 h 20.5207 20.5207 v 20.5398 20.5397 l 17.75,-0.081 c 9.7625,-0.045 18.9875,-0.063 20.5,-0.04 l 2.75,0.042 v 20 20 h 20 20 v 20.5 20.5 h 20.4888 20.4888 l 0.2612,-40.6508 z m 243.7612,20.1508 v -20.5 h 19.893 c 15.8269,0 19.9994,-0.2773 20.4137,-1.3568 0.2863,-0.7462 0.5448,-9.8325 0.5743,-20.1917 l 0.054,-18.835 20.0327,0.1821 20.0326,0.1822 v -20.4904 -20.4904 h 20.5 20.5 v -20.5 -20.5 h -122 -122 v 40.4547 40.4547 l 3.25,0.5989 c 1.7875,0.3294 10.45,0.4147 19.25,0.1896 8.8,-0.2251 16.5625,-0.2011 17.25,0.053 0.9426,0.3489 1.25,5.3547 1.25,20.3557 v 19.893 h 20 20 v 20.5 20.5 h 20.5 20.5 v -20.5 z m -443,-630.88342 c 0,-0.21085 -0.9,-0.61872 -2,-0.90638 -1.1,-0.28766 -2,-0.11514 -2,0.38337 0,0.49851 0.9,0.90638 2,0.90638 1.1,0 2,-0.17252 2,-0.38337 z m 36,-0.52301 c 0,-0.49851 -0.9,-0.67103 -2,-0.38337 -1.1,0.28766 -2,0.69553 -2,0.90638 0,0.21085 0.9,0.38337 2,0.38337 1.1,0 2,-0.40787 2,-0.90638 z m 325.7739,-57.53414 c 0.1506,-9.86728 0,-17.67022 -0.3268,-17.33987 -0.3304,0.33035 -0.5675,7.72858 -0.5269,16.44052 0.041,8.71193 -0.291,16.40574 -0.7368,17.09737 -0.6441,0.99907 -21.3999,1.20457 -100.9971,1 -55.1026,-0.14163 -100.1864,0.0821 -100.1864,0.49726 1e-4,0.41512 45.5626,0.64012 101.2501,0.5 l 101.25,-0.25476 z m 142.771,17.69114 c -13.6091,-0.2127 -19.1749,-0.64236 -19.7347,-1.52344 -0.5443,-0.85678 -0.7842,-0.69898 -0.7949,0.52282 -0.014,1.61569 1.5005,1.73261 19.7347,1.52344 l 19.75,-0.22656 z m -386.5449,-36.75062 c 0,-1.375 -0.3876,-2.5 -0.8613,-2.5 -0.4738,0 -0.6463,1.125 -0.3835,2.5 0.2629,1.375 0.6505,2.5 0.8614,2.5 0.2109,0 0.3834,-1.125 0.3834,-2.5 z m 246.7292,-4.10417 c -0.3323,-0.33229 -1.1948,-0.36781 -1.9167,-0.0789 -0.7977,0.31922 -0.5608,0.55618 0.6042,0.60416 1.0541,0.0434 1.6448,-0.19293 1.3125,-0.52522 z m -370.9613,-41.11036 c -1.5026,-0.22817 -4.2026,-0.23276 -6,-0.0102 -1.7973,0.22256 -0.5679,0.40925 2.7321,0.41486 3.3,0.006 4.7706,-0.17648 3.2679,-0.40466 z m 579.4958,0.0106 c -1.2299,-0.23736 -3.4799,-0.24351 -5,-0.0136 -1.52,0.22985 -0.5137,0.42406 2.2363,0.43157 2.75,0.008 3.9937,-0.18056 2.7637,-0.41792 z m 25.032,-0.0376 c -3.9624,-0.18931 -10.7124,-0.19045 -15,-0.003 -4.2876,0.1879 -1.0457,0.34279 7.2043,0.34419 8.25,10e-4 11.7581,-0.15234 7.7957,-0.34164 z m 6.7043,-79.25847 c 0,-0.55 -0.4766,-1 -1.059,-1 -0.5825,0 -0.7809,0.45 -0.441,1 0.3399,0.55 0.8165,1 1.059,1 0.2426,0 0.441,-0.45 0.441,-1 z m -40.2541,-31.25 c -0.1783,-5.6375 -0.3241,-1.025 -0.3241,10.25 0,11.275 0.1458,15.8875 0.3241,10.25 0.1782,-5.6375 0.1782,-14.8625 0,-20.5 z m -624.4959,-11.48221 c -2.3375,-0.21053 -6.1625,-0.21053 -8.5,0 -2.3375,0.21054 -0.425,0.3828 4.25,0.3828 4.675,0 6.5875,-0.17226 4.25,-0.3828 z m 583.75,-38.26779 c 0,-0.64156 -7.4376,-0.92163 -20.75,-0.78136 l -20.75,0.21864 20.5,0.56272 c 11.275,0.30949 20.6125,0.66111 20.75,0.78136 0.1375,0.12025 0.25,-0.23136 0.25,-0.78136 z m -579.1968,-0.74486 c -5.3333,-0.17945 -14.3333,-0.18018 -20,-0.002 -5.6668,0.17857 -1.3032,0.3254 9.6968,0.32628 11,8.9e-4 15.6364,-0.14522 10.3032,-0.32467 z m 21.4658,-40.91108 c -0.677,-0.27392 -2.027,-0.29059 -3,-0.0371 -0.9729,0.25354 -0.419,0.47766 1.231,0.49804 1.65,0.0204 2.4461,-0.18706 1.769,-0.46099 z m 29.4602,0.0518 c -0.3323,-0.33229 -1.1948,-0.36781 -1.9167,-0.0789 -0.7977,0.31922 -0.5608,0.55618 0.6042,0.60416 1.0541,0.0434 1.6448,-0.19293 1.3125,-0.52522 z m 369,0 c -0.3323,-0.33229 -1.1948,-0.36781 -1.9167,-0.0789 -0.7977,0.31922 -0.5608,0.55618 0.6042,0.60416 1.0541,0.0434 1.6448,-0.19293 1.3125,-0.52522 z m -2.7292,-23.39586 c 0,-16.97197 0,-16.99995 -2.25,-16.96959 -2.0474,0.0277 -2.0882,0.12456 -0.4528,1.07611 1.5942,0.92758 1.7861,2.53381 1.699,14.21959 -0.1284,17.21625 -0.089,18.67389 0.5038,18.67389 0.275,0 0.5,-7.65 0.5,-17 z m -204.3169,-21.1875 c -0.3192,-0.79773 -0.5562,-0.56078 -0.6042,0.60417 -0.043,1.05416 0.193,1.64479 0.5253,1.3125 0.3323,-0.33229 0.3678,-1.1948 0.079,-1.91667 z m -131.1831,-36.13057 c 3.3,-0.16312 -2.2125,-0.38328 -12.25,-0.48925 -10.0375,-0.10597 -18.2508,0.14482 -18.2519,0.55732 0,0.68769 15.9311,0.65213 30.5019,-0.0681 z m 131.5,0.31807 c 0,-0.65396 -13.9282,-0.91946 -40.25,-0.76726 l -40.25,0.23275 40,0.53451 c 22,0.29398 40.1125,0.63925 40.25,0.76726 0.1375,0.12801 0.25,-0.21726 0.25,-0.76726 z m -81.2541,-32.25 c -0.1783,-5.6375 -0.3241,-1.025 -0.3241,10.25 0,11.275 0.1458,15.8875 0.3241,10.25 0.1782,-5.6375 0.1782,-14.8625 0,-20.5 z m -37.0167,-49.35417 c -0.3323,-0.33229 -1.1948,-0.36781 -1.9167,-0.0789 -0.7977,0.31922 -0.5608,0.55618 0.6042,0.60416 1.0541,0.0434 1.6448,-0.19293 1.3125,-0.52522 z m 159.2708,833.25357 v -20.6494 h -20.5 -20.5 v -20.5 -20.5 h -20 -20 v -20.5 -20.5 h 20.5 20.5 v 20.5 20.5 h 20 20 v 20.5 20.5 h 81.5 81.5 v -20.5 -20.5 h 20 20 v -20.5 -20.5 h 20.5 20.5 v 20.5 20.5 h -20.5 -20.5 v 20.5 20.5 h -20 -20 v 20 20 l -22.25,0.01 c -12.2375,0.01 -48.9125,0.2974 -81.5,0.6494 l -59.25,0.64 v -20.6494 z m -325,-244.6494 v -61.04141 l 20.25,0.2707 20.25,0.27071 v 60.5 60.5 l -20.25,0.27071 -20.25,0.2707 z m 203,-19.98376 v -41.01624 h 41.0169 41.0169 l -0.2669,40.75 -0.2669,40.75 -40.75,0.26624 -40.75,0.26625 z m 285,-0.51624 v -40.5 h 40.5 40.5 v 40.5 40.5 h -40.5 -40.5 z"
         id="path301" />
      <path
         style="fill:#5997cf"
         d="m -2421.5593,2213.9492 v -41 h 20.5 20.5 v -20 -20 h 19.4648 c 18.2208,0 19.531,-0.1236 20.5,-1.9343 0.607,-1.1341 1.0352,-9.6145 1.0352,-20.5 v -18.5657 h 20 20 v -20.5 -20.5 h 20.5 20.5 v -101.4888 -101.4888 l -40.5613,-0.2612 -40.5613,-0.2612 -0.1887,-20 -0.1887,-20 -20.25,-0.2707 -20.25,-0.2707 v -40.4793 -40.4793 h -20.5 -20.5 v -244 -244 h 20.5 20.5 v -40.4793 -40.4793 l 20.25,-0.2707 20.25,-0.2707 0.2707,-20.25 0.2707,-20.25 h 19.9793 19.9793 v -19.9793 -19.9793 l 20.25,-0.2707 20.25,-0.2707 0.254,-121.75005 0.254,-121.75 h -20.504 -20.504 v -20.5 -20.5 h 41 41 v 142.5 142.50005 h 284.5 284.5 v -142.50005 -142.5 h 40.5 40.5 v -61 -61 h -40.5 -40.5 v -81.5 -81.5 h 20 20 v -40.5 -40.5 h -20 -20 v -20 -20 h -20.5 -20.5 v -20.5 -20.5 h -20.5 -20.5 v -20.5 -20.5 l -60.75,0.001 -60.75,10e-4 0.2902,-20.00103 0.2901,-20.00103 h -102.0401 -102.0402 v -20.5 -20.5 h -40.5 -40.5 v -20.5 -20.5 h 40.5 40.5 v -20 -20 h -60.4887 -60.4886 l -0.2614,40.25 -0.2613,40.25 -20.25,0.27071 -20.25,0.2707 v 40.4793 40.47929 h -20.5 -20.5 v 20.5 20.5 h -20 -20 v 20 20 h 20 20 v 61 61 h 20.5 20.5 v 61 61 h 20 20 v -20 -20 h 41 41 v -20.5 -20.5 h 20.5 20.5 v 20.50476 20.50476 l 101.25,-0.25476 101.25,-0.25476 V 567.19854 546.948 l 61.25,5.4e-4 61.25,5.5e-4 v 20.5 20.5 h 20.5 20.5 v 61 61 h 20 20 v 20 20 h -20.5 -20.5 V 729.9698 709.9905 l -20.25,-0.2707 -20.25,-0.27071 -0.2577,-60.75 -0.2578,-60.75 h -60.4922 -60.4923 v 19.83616 19.83615 l -60.25,0.6343 c -79.6038,0.83805 -140.0911,0.88348 -142.1152,0.10674 -1.4373,-0.55146 -1.6348,-3.03115 -1.6348,-20.52028 v -19.89301 h -19.9793 -19.9793 l -0.2707,20.25 -0.2707,20.25 -39.9461,0.27942 c -21.9703,0.15367 -40.0679,0.40122 -40.2168,0.55011 -0.1489,0.14888 -0.3195,9.13564 -0.3792,19.97058 l -0.1085,19.69989 h -61.4247 -61.4247 v -20.5 -20.5 h 20.5 20.5 v -61 -61 h -20.5 -20.5 v -61 c 0,-33.55 -0.3375,-60.94671 -0.75,-60.88158 -0.4125,0.0651 -9.4125,0.0651 -20,0 l -19.25,-0.11842 v -20 -20 h 20 20 v -20.5 -20.5 h 20.5 20.5 v -40.47929 -40.4793 l 20.25,-0.2707 c 17.1413,-0.22915 20.2707,-0.50098 20.3846,-1.77071 0.074,-0.825 0.1866,-19.1625 0.25,-40.75 l 0.1154,-39.25 h 20 20 v -20 -19.999996 h 61 61 v 19.999996 20 h 20.5 20.5 v 20.5 20.5 h -20.5207 -20.5207 l 0.2707,20.25 0.2707,20.25 81,0.23446 c 44.55,0.12895 90.1125,0.24145 101.25,0.25 l 20.25,0.0155 0.014,17.75 c 0.01,9.7625 0.2849,18.7625 0.6166,20 l 0.603,2.25 h 60.3833 60.3834 l 0.07,13.25 c 0.039,7.2875 0.1511,16.4 0.25,20.25 l 0.1799,7 20.2294,0.27064 20.2293,0.27064 0.2707,20.22936 0.2706,20.22936 18.5,0.21887 c 10.175,0.12038 19.2875,0.23288 20.25,0.25 1.6073,0.0286 1.75,1.66204 1.75,20.03113 v 20 h 19.9793 19.9793 l 0.2707,20.25 0.2707,20.25 20.25,0.27071 20.25,0.2707 v 40.45859 40.45859 l -20.25,0.2707 -20.25,0.27071 -0.2577,60.75 -0.2578,60.75 h 20.5078 20.5077 v 20.5 20.5 h 20.5 20.5 v 61 61 h -20.5 -20.5 v 20.5 20.5 h -20.4841 -20.4841 l 0.2341,121.75 0.2341,121.75009 20.25,0.2707 20.25,0.2707 v 19.9793 19.9793 h 20.5 20.5 v 20.5 20.5 h 20 20 v 40.5 40.5 h 20.5 20.5 v 243.9793 243.9793 l -20.25,0.2707 -20.25,0.2707 -0.2321,38.5 c -0.1277,21.175 -0.3527,39.3267 -0.5,40.3372 -0.2503,1.7167 -1.5627,1.829 -20.0179,1.7124 l -19.75,-0.1247 v 20.5263 20.5264 l -40.75,0.2612 -40.75,0.2612 -0.2548,101.25 -0.2547,101.25 h 20.5047 20.5048 v 20.5 20.5 h 20.5 20.5 v 20.5 20.5 h 20 20 v 20 20 h 20.5 20.5 v 41 41 h -488 -488 v -41 z m 447.7707,-20.25 -0.2707,-20.25 -162,-0.311 c -89.1,-0.1711 -180.5625,-0.01 -203.25,0.3675 l -41.25,0.6786 v 19.8824 19.8825 h 203.5207 203.5207 z m 487.5246,0.5001 -0.2047,-19.7501 -28.2953,-0.7329 c -15.5624,-0.4031 -116.0453,-0.6281 -223.2953,-0.5 l -195,0.2329 -0.2707,20.25 -0.2707,20.25 223.7707,1e-4 h 223.7707 z m -488.633,-142.9508 c 1.1048,-0.4239 1.3377,-18.1693 1.3377,-101.9063 v -101.393 h -122 -122 v 101.9689 101.9688 l 120.6623,-0.062 c 66.3643,-0.034 121.2643,-0.2935 122,-0.5759 z m 326.0924,-101.5527 0.2548,-101.7534 -142.2548,0.2534 -142.2547,0.2534 -0.2577,100.5 c -0.1418,55.275 -0.047,101.0522 0.2098,101.7272 0.367,0.9631 30.9815,1.1783 142.2578,1 l 141.7901,-0.2272 z m -609.7547,-263.8013 v -121.9453 h -61 -61 v 61.0438 c 0,48.255 0.2619,61.0099 1.25,60.8816 0.6875,-0.089 9.9125,-0.109 20.5,-0.044 l 19.25,0.1186 v 40.5 40.5 h 20 20 v 19.8333 c 0,10.9084 0.2547,20.088 0.5659,20.3993 0.3113,0.3113 9.5363,0.5866 20.5,0.6119 l 19.9341,0.046 z m 691,101.478 v -20.4233 h 20.5 20.5 l -2e-4,-40.75 -2e-4,-40.75 18.2502,0.2514 c 10.0376,0.1383 19.2557,0.019 20.4847,-0.2651 l 2.2345,-0.5166 -7e-4,-60.4849 -8e-4,-60.4848 h -60.9837 -60.9838 v 121.4167 c 0,96.1889 0.2597,121.5248 1.25,121.9374 0.6875,0.2864 9.6875,0.5144 20,0.5066 l 18.75,-0.014 v -20.4233 z m -446.7612,-549.0741 0.2612,-40.6507 20,-0.099 20,-0.099 0.2612,-40.7547 0.2612,-40.7548 -101.7612,0.2548 -101.7612,0.2547 -0.2707,20.25 -0.2707,20.25 h 20.5207 20.5207 v 20.5398 20.5397 l 17.75,-0.081 c 9.7625,-0.045 18.9875,-0.063 20.5,-0.04 l 2.75,0.042 v 20 20 h 20 20 v 20.5 20.5 h 20.4888 20.4888 l 0.2612,-40.6508 z m 243.7612,20.1508 v -20.5 h 19.893 c 15.8269,0 19.9994,-0.2773 20.4137,-1.3568 0.2863,-0.7462 0.5448,-9.8325 0.5743,-20.1917 l 0.054,-18.835 20.0327,0.1821 20.0326,0.1822 v -20.4904 -20.4904 h 20.5 20.5 v -20.5 -20.5 h -122 -122 v 40.4547 40.4547 l 3.25,0.5989 c 1.7875,0.3294 10.45,0.4147 19.25,0.1896 8.8,-0.2251 16.5625,-0.2011 17.25,0.053 0.9426,0.3489 1.25,5.3547 1.25,20.3557 v 19.893 h 20 20 v 20.5 20.5 h 20.5 20.5 v -20.5 z m -244,-283.85065 v -20.6494 h -20.5 -20.5 v -20.5 -20.5 h -20 -20 v -20.5 -20.5 h 20.5 20.5 v 20.5 20.5 h 20 20 v 20.5 20.5 h 81.5 81.5 v -20.5 -20.5 h 20 20 v -20.5 -20.5 h 20.5 20.5 v 20.5 20.5 h -20.5 -20.5 v 20.5 20.5 h -20 -20 v 20 20 l -22.25,0.01 c -12.2375,0.01 -48.9125,0.2974 -81.5,0.6494 l -59.25,0.64 v -20.6494 z m -325,-244.6494 v -61.04141 l 20.25,0.2707 20.25,0.27071 v 60.5 60.5 l -20.25,0.27071 -20.25,0.2707 z m 203,-19.98376 v -41.01624 h 41.0169 41.0169 l -0.2669,40.75 -0.2669,40.75 -40.75,0.26624 -40.75,0.26625 z m 285,-0.51624 v -40.5 h 40.5 40.5 v 40.5 40.5 h -40.5 -40.5 z"
         id="path299" />
      <path
         style="fill:#855f3a"
         d="m -2421.5593,2213.9492 v -41 h 20.5 20.5 v -19.9793 -19.9793 l 20.25,-0.2707 20.25,-0.2707 0.2707,-20.25 0.2707,-20.25 h 19.9793 19.9793 v -20.5 -20.5 h 20.5 20.5 v -101.5 -101.5 h -40.4793 -40.4793 l -0.2707,-20.25 -0.2707,-20.25 -20.25,-0.2707 -20.25,-0.2707 v -40.4793 -40.4793 h -20.5 -20.5 v -244 -244 h 20.5 20.5 v -40.4793 -40.4793 l 20.25,-0.2707 20.25,-0.2707 0.2707,-20.25 0.2707,-20.25 h 19.9793 19.9793 v -19.9793 -19.9793 l 20.25,-0.2707 20.25,-0.2707 0.254,-121.75005 0.254,-121.75 h -20.504 -20.504 v -20.5 -20.5 h 41 41 v 142.5 142.50005 h 284.5 284.5 v -142.50005 -142.5 h 40.5 40.5 v -61 -61 h -40.5 -40.5 v -81.5 -81.5 h 20 20 v -40.5 -40.5 h -20 -20 v -20 -20 h -20.5 -20.5 v -20.5 -20.5 h -20.5 -20.5 v -20.5 -20.5 l -60.75,0.001 -60.75,10e-4 0.2902,-20.00103 0.2901,-20.00103 h -102.0401 -102.0402 v -20.5 -20.5 h -40.5 -40.5 v -20.5 -20.5 h 40.5 40.5 v -20 -20 h -60.4887 -60.4886 l -0.2614,40.25 -0.2613,40.25 -20.25,0.27071 -20.25,0.2707 v 40.4793 40.47929 h -20.5 -20.5 v 20.5 20.5 h -20 -20 v 20 20 h 20 20 v 61 61 h 20.5 20.5 v 61 61 h 20 20 v -20 -20 h 41 41 v -20.5 -20.5 h 20.5 20.5 v 20.50476 20.50476 l 101.25,-0.25476 101.25,-0.25476 V 567.19854 546.948 l 61.25,5.4e-4 61.25,5.5e-4 v 20.5 20.5 h 20.5 20.5 v 61 61 h 20 20 v 20 20 h -20.5 -20.5 V 729.9698 709.9905 l -20.25,-0.2707 -20.25,-0.27071 -0.2577,-60.75 -0.2578,-60.75 h -60.4922 -60.4923 v 19.83616 19.83615 l -60.25,0.6343 c -79.6038,0.83805 -140.0911,0.88348 -142.1152,0.10674 -1.4373,-0.55146 -1.6348,-3.03115 -1.6348,-20.52028 v -19.89301 h -19.9793 -19.9793 l -0.2707,20.25 -0.2707,20.25 -39.9461,0.27942 c -21.9703,0.15367 -40.0679,0.40122 -40.2168,0.55011 -0.1489,0.14888 -0.3195,9.13564 -0.3792,19.97058 l -0.1085,19.69989 h -61.4247 -61.4247 v -20.5 -20.5 h 20.5 20.5 v -61 -61 h -20.5 -20.5 v -61 -61 h -20 -20 v -20 -20 h 20 20 v -20.5 -20.5 h 20.5 20.5 v -40.47929 -40.4793 l 20.25,-0.2707 20.25,-0.27071 0.2612,-40.75 0.2612,-40.75 h 19.9888 19.9888 v -20 -19.999996 h 61 61 v 19.999996 20 h 20.5 20.5 v 20.5 20.5 h -20.5207 -20.5207 l 0.2707,20.25 0.2707,20.25 101.25,0.25476 101.25,0.25476 v 18.41345 c 0,10.1274 0.2731,19.12526 0.607,19.99524 0.5442,1.41822 6.8501,1.58179 60.9793,1.58179 h 60.3723 l 0.2707,20.25 0.2707,20.25 20.2294,0.27064 20.2293,0.27064 0.2707,20.22936 0.2706,20.22936 20.25,0.27071 20.25,0.2707 v 19.9793 19.97929 h 19.9793 19.9793 l 0.2707,20.25 0.2707,20.25 20.25,0.27071 20.25,0.2707 v 40.45859 40.45859 l -20.25,0.2707 -20.25,0.27071 -0.2577,60.75 -0.2578,60.75 h 20.5078 20.5077 v 20.5 20.5 h 20.5 20.5 v 61 61 h -20.5 -20.5 v 20.5 20.5 h -20.504 -20.504 l 0.254,121.75 0.254,121.75005 20.25,0.2707 20.25,0.2707 v 19.9793 19.9793 h 20.5 20.5 v 20.5 20.5 h 20 20 v 40.5 40.5 h 20.5 20.5 v 243.9793 243.9793 l -20.25,0.2707 -20.25,0.2707 -0.2613,40.25 -0.2614,40.25 h -19.9886 -19.9887 v 20.4888 20.4888 l -40.75,0.2612 -40.75,0.2612 -0.2548,101.25 -0.2547,101.25 h 20.5047 20.5048 v 20.5 20.5 h 20.5 20.5 v 20.5 20.5 h 20 20 v 20 20 h 20.5 20.5 v 41 41 h -488 -488 z m 447.7707,-20.25 -0.2707,-20.25 -162,-0.311 c -89.1,-0.1711 -180.5625,-0.01 -203.25,0.3675 l -41.25,0.6786 v 19.8824 19.8825 h 203.5207 203.5207 z m 487.5246,0.5001 -0.2047,-19.7501 -28.2953,-0.7329 c -15.5624,-0.4031 -116.0453,-0.6281 -223.2953,-0.5 l -195,0.2329 -0.2707,20.25 -0.2707,20.25 223.7707,1e-4 h 223.7707 z m -488.633,-142.9508 c 1.1048,-0.4239 1.3377,-18.1693 1.3377,-101.9063 v -101.393 h -122 -122 v 101.9689 101.9688 l 120.6623,-0.062 c 66.3643,-0.034 121.2643,-0.2935 122,-0.5759 z m 326.0924,-101.5527 0.2548,-101.7534 -142.2548,0.2534 -142.2547,0.2534 -0.2577,100.5 c -0.1418,55.275 -0.047,101.0522 0.2098,101.7272 0.367,0.9631 30.9815,1.1783 142.2578,1 l 141.7901,-0.2272 z m -609.7547,-263.8013 v -121.9453 h -61 -61 v 61.0438 c 0,48.255 0.2619,61.0099 1.25,60.8816 0.6875,-0.089 9.9125,-0.109 20.5,-0.044 l 19.25,0.1186 v 40.5 40.5 h 20 20 v 19.8333 c 0,10.9084 0.2547,20.088 0.5659,20.3993 0.3113,0.3113 9.5363,0.5866 20.5,0.6119 l 19.9341,0.046 z m 691,101.478 v -20.4233 h 20.5 20.5 l -2e-4,-40.75 -2e-4,-40.75 18.2502,0.2514 c 10.0376,0.1383 19.2557,0.019 20.4847,-0.2651 l 2.2345,-0.5166 -7e-4,-60.4849 -8e-4,-60.4848 h -60.9837 -60.9838 v 121.4167 c 0,96.1889 0.2597,121.5248 1.25,121.9374 0.6875,0.2864 9.6875,0.5144 20,0.5066 l 18.75,-0.014 v -20.4233 z m -691,-386.4233 v -122 h 20.5 20.5 v 122 122 h 284.5 284.5 v -122.0207 -122.0207 l 20.25,0.2707 20.25,0.2707 0.254,121.75 0.254,121.75 h 60.996 60.996 v -122 -122 h -20.5 -20.5 v -40.5 c 0,-37.8677 -0.1137,-40.5063 -1.75,-40.5974 -0.9625,-0.054 -10.075,-0.1661 -20.25,-0.25 l -18.5,-0.1526 -0.2707,-20.25 -0.2707,-20.25 h -40.4793 -40.4793 v -20.5 -20.5 h -122 -122 v 41 41 h -40.5 -40.5 v -41.0047 -41.0048 l -101.75,0.2548 -101.75,0.2547 -0.2707,20.25 -0.2707,20.25 h -19.9793 -19.9793 v -20.5207 -20.5207 l -20.25,0.2707 -20.25,0.2707 -0.2707,20.25 -0.2707,20.25 h -20.4586 -20.4586 l -0.2707,20.25 -0.2707,20.25 -18.5,0.1778 c -10.175,0.098 -19.0625,0.2102 -19.75,0.25 -0.9782,0.057 -1.25,8.8774 -1.25,40.5722 v 40.5 h -20.5 -20.5 v 122 122 h 61 61 z m 203.7222,-81.6112 c -0.3972,-0.3972 -0.7222,-9.6471 -0.7222,-20.5555 v -19.8333 h -20 -20 v -20.5 -20.5 h -20.5 -20.5 v -20 c 0,-15.3071 -0.2933,-20.0116 -1.25,-20.0492 -0.6875,-0.027 -9.8,-0.1396 -20.25,-0.25 l -19,-0.2008 -0.2707,-20.25 -0.2707,-20.25 h 20.5207 20.5207 v 20.5398 20.5397 l 17.75,-0.081 c 9.7625,-0.045 18.9875,-0.063 20.5,-0.04 l 2.75,0.042 v 20 20 h 20 20 v 20.5 20.5 h 20.4888 20.4888 l 0.2612,-40.6446 0.2612,-40.6446 17.5,0.069 c 9.625,0.038 18.7426,0.103 20.2613,0.1445 l 2.7614,0.075 -0.2614,40.25 -0.2613,40.25 -20.25,0.2707 -20.25,0.2707 v 19.8723 c 0,14.9789 -0.3078,19.9888 -1.25,20.3454 -2.0779,0.7864 -38.2509,0.9066 -39.0278,0.1297 z m 243.7344,-0.2655 c -0.2511,-0.2512 -0.4566,-9.3816 -0.4566,-20.29 v -19.8333 h -20 -20 v -20.5 -20.5 h -20.5207 -20.5207 l 0.2707,-20.052 0.2707,-20.052 19,-0.2617 c 10.45,-0.1439 19.5625,-0.072 20.25,0.159 0.944,0.3177 1.25,5.2903 1.25,20.3137 v 19.893 h 20 20 v 20.5 20.5 h 20.5 20.5 v -20.5 -20.5 h 19.893 c 15.8269,0 19.9994,-0.2773 20.4137,-1.3568 0.2863,-0.7462 0.5448,-9.8325 0.5743,-20.1917 l 0.054,-18.835 20.0327,0.1821 20.0326,0.1822 v -20.4904 -20.4904 h 20.5 20.5 v 19.893 c 0,16.4847 -0.2492,19.9887 -1.4547,20.4512 -0.8,0.307 -9.575,0.5692 -19.5,0.5826 -9.9249,0.013 -18.4953,0.035 -19.0453,0.049 -0.6325,0.015 -1,7.3669 -1,20.0033 v 19.9788 l -19.75,0.2712 -19.75,0.2711 -0.2707,20.25 -0.2707,20.25 h -20.4793 -20.4793 v 20 c 0,18.3137 -0.1476,20.0149 -1.75,20.1766 -4.0716,0.4109 -38.3763,0.3637 -38.7934,-0.053 z m -203.4566,-344.47395 v -20.6494 h -20.5 -20.5 v -20.5 -20.5 h -20 -20 v -20.5 -20.5 h 20.5 20.5 v 20.5 20.5 h 20 20 v 20.5 20.5 h 81.5 81.5 v -20.5 -20.5 h 20 20 v -20.5 -20.5 h 20.5 20.5 v 20.5 20.5 h -20.5 -20.5 v 20.5 20.5 h -20 -20 v 20 20 l -22.25,0.01 c -12.2375,0.01 -48.9125,0.2974 -81.5,0.6494 l -59.25,0.64 v -20.6494 z m -325,-244.6494 v -61.04141 l 20.25,0.2707 20.25,0.27071 v 60.5 60.5 l -20.25,0.27071 -20.25,0.2707 z m 203,-19.98376 v -41.01624 h 41.0169 41.0169 l -0.2669,40.75 -0.2669,40.75 -40.75,0.26624 -40.75,0.26625 z m 285,-0.51624 v -40.5 h 40.5 40.5 v 40.5 40.5 h -40.5 -40.5 z"
         id="path297" />
      <path
         style="fill:#221d1e"
         d="m -2420.5593,2213.9492 v -40 h 20 20 l -1e-4,20.25 -10e-5,20.25 142.0001,-0.2649 142.0001,-0.2649 v 20.0149 20.0149 h -162 -162 z m 325,19.961 v -20.039 l 60.25,0.289 60.25,0.289 0.2711,19.75 0.2712,19.75 h -60.5212 -60.5211 z m 122,-284.461 v -304.5 h 20 20 v 81.5 81.5 h 40.5 40.5 v 20 20 h -40.5 -40.5 v 102 102 h 40.5 40.5 v 20 20 h -40.5077 -40.5077 l 0.2577,61.1269 0.2577,61.1269 40.25,-0.1836 40.25,-0.1837 v 20.0568 20.0567 h -60.5 -60.5 z m 122,284.4882 v -20.0118 l 182.75,0.053 182.75,0.053 0.2707,-20.0409 0.2707,-20.041 h 19.9793 19.9793 v 40 40 h -203 -203 v -20.0118 z m -529,-80.9882 v -20 h 19.8916 19.8916 l 0.6452,2.5708 c 0.3549,1.414 0.5908,10.414 0.5243,20 l -0.1209,17.4292 h -20.4159 -20.4159 z m 854,0 v -20 h 20 20 v 20 20 h -20 -20 z m -813,-40.5265 v -20.4735 h 20 20 v -20 -20 h 20.5 20.5 v -102 -102 h -40.5 -40.5 v -20.5 -20.5 h -20.5 -20.5 v -40.5 -40.5 h -20 -20 v -244 -244 h 20 20 v -40.5 -40.5 h 20.5 20.5 v -20.5 -20.5 h 20 20 v -20 -20 h 20.5 20.5 v -122.50005 -122.5 h -20.5 -20.5 v -20 -20 h -20 -20 v -61 -61 h 20 20 v -20.5 -20.5 h 20.5 20.5 v -61 -61 h -20.5 -20.5 v -60.5 -60.5 h 20.5 20.5 v 60.5 c 0,56.93688 0.1031,60.5024 1.75,60.5407 0.9625,0.0224 9.9625,0.005 20,-0.039 l 18.25,-0.0797 v 61.039 61.03899 h 20.5 20.5 l 0.1152,-18.25 c 0.063,-10.0375 0.035,-19.0375 -0.063,-20 -0.1669,-1.64083 2.3524,-1.75 40.3849,-1.75 h 40.5628 v 20 20 h -40.5 -40.5 v 20.5 20.5 h -61 -61 v 61 61 h 40.5 40.5 v 142.5 142.49996 h 61 61 v 20 20 h -40.5 -40.5 v 20.5 20.5 h 20.5 20.5 v 20 20 h -20.5 -20.5 v -20 -20 h -20 -20 v -20.5 -20.5 h -20.5 -20.5 v 20.5 20.5 h -20.5 -20.5 v 20 20 h -20 c -15.316,0 -20.0075,0.2927 -20.0323,1.25 -0.018,0.6875 0,19.1375 0.031,41 l 0.064,39.75 h -20.5314 -20.5314 v 122 122 h 61 61 v -122 -122 h 20.4965 20.4964 l -0.01,81.25 c 0,44.6875 0,99.5875 0,122 l 0.01,40.75 h 60.5 60.5 v 20 20 l -60.75,10e-5 -60.75,10e-5 v 122.4999 122.5 h 60.75 l 60.75,-10e-5 v 19.9923 19.9922 l -60.75,0.2578 -60.75,0.2577 -0.2547,101.75 -0.2548,101.75 h 61.0048 61.0047 v 20 20 h -101.5 -101.5 l -10e-5,20.25 -1e-4,20.25 -19.9999,0.2235 -19.9999,0.2235 v -20.4735 z m 81,-426.9735 v -122.5 h -61 -61 v 61.5 61.5 h 19.9887 19.9886 l 0.2614,40.25 0.2613,40.25 20.25,0.2707 20.25,0.2707 v 20.4793 20.4793 h 20.5 20.5 z m 696.25,446.787 -5.25,-0.3915 v -19.9478 -19.9477 h -142 -142 v -20 -20 h 101.5 101.5 v -102 -102 h -101.5 -101.5 v -20 -20 h 101.5 101.5 v -122.5 -122.5 h -101.5 -101.5 v -20 -20 h 101.5 101.5 v -122 -122 h 20 20 v 122 122 h 61.5 61.5 v -122 -122 h -20.5 -20.5 v -41 -41 h -20.5 -20.5 v -20 -20 h -40.5 -40.5 v 20 20 h -20.386 -20.3859 l -0.095,-20 -0.094,-20 h 20.4805 20.4805 v -20.5 -20.5 h -101.5 -101.5 v -20 -20 h 101.5 101.5 v -142.50005 -142.5 h 40.5 c 22.275,0 40.5122,-0.3375 40.5271,-0.75 0.062,-1.71423 0.09,-86.18056 0.034,-103 l -0.061,-18.25 h -40.5059 -40.5059 l 0.2559,-81.25 0.2559,-81.25 19.75,-0.18457 19.75,-0.18456 v 60.93456 60.93457 h 20.5 20.5 v 20.5 20.5 h 20.5 20.5 v 61 61 h -20.5 -20.5 v 20 20 h -20.5 -20.5 v 122.5 122.50005 h 20.5 20.5 v 20 20 h 20.5 20.5 v 20.5 20.5 h 20 20 v 40.5 40.5 h 20.5 20.5 v 244 244 h -20.5 -20.5 v 40.5 40.5 h -20 -20 v 20.5 20.5 h -41 -41 v 102 102 h 20.5 20.5 v 20 20 h 20.5207 20.5207 l -0.2707,20.25 -0.2707,20.25 -15,0.089 c -8.25,0.049 -17.3625,-0.087 -20.25,-0.3023 z m -5.2106,-326.537 c 0.022,-1.2375 0.1546,-10.35 0.2953,-20.25 l 0.2558,-18 20.2047,-0.2707 20.2048,-0.2707 v -40.4793 -40.4793 h 20.5 20.5 v -61.5 -61.5 h -61.5 -61.5 v 122.5 122.5 h 20.5 20.5 l 0.039,-2.25 z m -528.0394,266.25 v -20 h 60.5 60.5 v 20 20 h -60.5 -60.5 z m 0,-244 v -20 h 60.5 60.5 v 20 20 h -60.5 -60.5 z m 0,-285 v -20 h 60.5 60.5 v 20 20 h -60.5 -60.5 z m 122,0 v -20 h 60.5 60.5 v 20 20 h -60.5 -60.5 z m -82,-244 v -20 h -20 -20 v -19.9809 -19.981 l 2.3539,-0.5908 c 1.2946,-0.3249 10.1821,-0.446 19.75,-0.269 l 17.3961,0.3217 0.2707,20.25 0.2707,20.25 h 20.4793 20.4793 v -40.5 -40.5 h 20 20 v 40.5 40.5 h -20 -20 v 20 20 h -20.5 -20.5 z m 244,0 v -20 h -20 -20 v -20.4308 -20.4307 l 20,-0.095 20,-0.095 v 20.5261 20.5262 h 20.4793 20.4793 l 0.2707,-20.25 0.2707,-20.25 19.75,-0.2981 19.75,-0.2981 v 20.5481 20.5481 h -20 -20 v 20 20 h -20.5 -20.5 v -20 z m -325,-81 v -20 h 20 20 v 20 20 h -20 -20 z m 244,0 v -20 h 20 20 v 20 20 h -20 -20 z m 163,0 v -20 h 20 20 v 20 20 h -20 -20 z m -244,-81.5 v -60.5 h 60.5 60.5 v 20 20 h -20 -20 v 40.5 40.5 h -40.5 -40.5 z m -122,-40.5 v -20 h 60.5 60.5 v 20 20 h -60.5 -60.5 z m 80.7707,-122.25005 -0.2707,-20.25 -20.25,-0.2707 -20.25,-0.2707 v -19.97931 -19.97929 h -20 -20 v -20.55051 -20.55051 l 19.75,0.30051 19.75,0.30051 0.2707,20.25 0.2707,20.25 h 20.4793 20.4793 v 20.5 20.5 h 20 20 v 20 20 h -19.9793 -19.9793 z m 41.2293,0.25 v -20 h 60.5 60.5 v 20 20 h -60.5 -60.5 z m 122,-41 v -20 h 19.9793 19.9793 l 0.2707,-20.25 0.2707,-20.25 20.25,-0.2005 20.25,-0.2005 v 20.4505 20.4505 h -20.5 -20.5 v 20 20 h -20 -20 z m -285,-223.5 v -40.5 h 20 20 v 40.5 40.5 h -20 -20 z m 41,0 v -40.5 h 20 20 v 40.5 40.5 h -20 -20 z m 244,0 v -40.5 h 40.5 40.5 v 40.5 40.5 h -40.5 -40.5 z m 162.1776,20.5 0.092,-20 h 20.3654 20.3654 v 20 20 h -20.457 -20.457 l 0.092,-20 z m -40.1776,-81.5 v -60.5 h 20 20 v 60.5 60.5 h -20 -20 z m -325.9112,-40.5 -0.01,-20 h 40.4608 40.4608 v 20 20 h -40.4503 -40.4504 l -0.011,-20 z m 81.9112,0 v -20 h 60.5 60.5 v 20 20 h -60.5 -60.5 z m 122.4163,-20.91667 c -0.229,-0.22916 -0.4163,-9.34166 -0.4163,-20.25 v -19.83333 h 60.5 60.5 v 19.98457 19.98457 l -60.0837,0.26543 c -33.046,0.14599 -60.271,0.0779 -60.5,-0.15124 z m -244.4163,-20.08333 v -20 h 20 20 v 20 20 h -20 -20 z m 488,-101.5 v -40.5 h 20 20 v 40.5 40.5 h -20 -20 z m -41,-60.5 v -20 h 20 20 v 20 20 h -20 -20 z m -691,-41 v -20 h 20 20 v -20.5 -20.5 h 20.5 20.5 v -40.52071 -40.5207 l 20.25,0.2707 c 11.1375,0.14889 20.1375,0.60821 20,1.02071 -0.1375,0.4125 -0.25,18.525 -0.25,40.25 v 39.5 h -20 -20 v 19.97929 19.9793 l -20.25,0.2707 -20.25,0.27071 -0.2707,20.25 -0.2707,20.25 h -19.9793 -19.9793 z m 650.607,18.41821 c -0.3339,-0.86998 -0.607,-9.86998 -0.607,-20 v -18.41821 h 20.5 20.5 v 20 20 h -19.893 c -17.2173,0 -19.9747,-0.21276 -20.5,-1.58179 z m -40.607,-59.41821 v -20 h 20 20 v 20 20 h -20 -20 z m -122,-40 v -20 h 60.5 60.5 v 20 20 h -60.5 -60.5 z m -203.3333,-21.66667 c -0.3667,-0.36666 -0.6667,-9.36666 -0.6667,-20 v -19.33333 h 40.5 40.5 v 20 20 h -39.8333 c -21.9084,0 -40.1334,-0.3 -40.5,-0.66667 z m 81.3333,-19.33333 v -20 h 60.5 60.5 v 20 20 h -60.5 -60.5 z m -244,-61 v -40 h 20 20 v 40 40 h -20 -20 z m 81,20 v -20 h 20 20 v 20 20 h -20 -20 z m 41,0.0207 v -19.9793 l 20.0516,-0.2707 20.0516,-0.27071 -0.012,-19.75 -0.011,-19.75 h 20.4599 20.4599 v 20 20 h -20.5 -20.5 v 20 20 h -20 -20 z m -82,-81.0207 V 99.949154 h 40.5 40.5 v 19.999996 20 h -40.5 -40.5 z m 82,0 V 99.949154 h 20 20 v 19.999996 20 h -20 -20 z"
         id="path295" />
    </g>
  </g>
</svg>
